<svg width="45" height="45" viewBox="0 0 45 45" fill="none" xmlns="http://www.w3.org/2000/svg">
<g id="Frame">
<g id="icone">
<path id="Vector" d="M9 4.31249C9.00668 4.43031 9.05025 4.54303 9.12453 4.63472C9.19881 4.72641 9.30004 4.79242 9.41391 4.8234C9.52777 4.85439 9.64849 4.84878 9.75899 4.80737C9.86949 4.76596 9.96417 4.69084 10.0296 4.59266C10.0951 4.49447 10.128 4.37819 10.1237 4.26026C10.1195 4.14234 10.0782 4.02874 10.0058 3.93556C9.93342 3.84237 9.83355 3.77431 9.72034 3.741C9.60713 3.7077 9.48632 3.71085 9.375 3.74999H7.5C6.50544 3.74999 5.55161 4.14508 4.84835 4.84834C4.14509 5.5516 3.75 6.50543 3.75 7.49999V16.875C3.75 19.8587 4.93526 22.7202 7.04505 24.8299C9.15483 26.9397 12.0163 28.125 15 28.125C17.9837 28.125 20.8452 26.9397 22.955 24.8299C25.0647 22.7202 26.25 19.8587 26.25 16.875V7.49999C26.25 6.50543 25.8549 5.5516 25.1516 4.84834C24.4484 4.14508 23.4946 3.74999 22.5 3.74999H20.625C20.5881 3.78693 20.5588 3.83077 20.5388 3.87903C20.5188 3.92729 20.5085 3.97901 20.5085 4.03124C20.5085 4.08347 20.5188 4.1352 20.5388 4.18345C20.5588 4.23171 20.5881 4.27556 20.625 4.31249C20.6619 4.34943 20.7058 4.37872 20.754 4.39871C20.8023 4.4187 20.854 4.42899 20.9062 4.42899C20.9585 4.42899 21.0102 4.4187 21.0585 4.39871C21.1067 4.37872 21.1506 4.34943 21.1875 4.31249" stroke="#FD7E14" stroke-width="3" stroke-linecap="round" stroke-linejoin="round"/>
<path id="Vector_2" d="M15 28.125V30C15 32.9837 16.1853 35.8452 18.295 37.955C20.4048 40.0647 23.2663 41.25 26.25 41.25C29.2337 41.25 32.0952 40.0647 34.205 37.955C36.3147 35.8452 37.5 32.9837 37.5 30V22.5" stroke="#FD7E14" stroke-width="3" stroke-linecap="round" stroke-linejoin="round"/>
<path id="Vector_3" d="M37.5 22.5C39.5711 22.5 41.25 20.8211 41.25 18.75C41.25 16.6789 39.5711 15 37.5 15C35.4289 15 33.75 16.6789 33.75 18.75C33.75 20.8211 35.4289 22.5 37.5 22.5Z" stroke="#FD7E14" stroke-width="3" stroke-linecap="round" stroke-linejoin="round"/>
</g>
</g>
</svg>
